<svg width="150" height="24" viewBox="0 0 150 24" fill="none" xmlns="http://www.w3.org/2000/svg">
<path d="M0 24V0.119507H7.39303V3.1199H3.86049V20.9902H7.39303V24H0Z" fill="#FF3636"/>
<path d="M8.81963 12.14V10.2435C9.90032 10.2435 10.6499 10.0265 11.0685 9.59245C11.487 9.15843 11.6963 8.45708 11.6963 7.4884V5.40322C11.6963 4.23954 11.8556 3.3086 12.1741 2.6104C12.499 1.9059 12.9487 1.37439 13.5234 1.01585C14.1044 0.657313 14.7915 0.418288 15.5849 0.298775C16.3782 0.179263 17.2465 0.119507 18.1898 0.119507V3.1199C17.4526 3.1199 16.8904 3.2174 16.5031 3.41239C16.1221 3.6011 15.8628 3.89673 15.7254 4.2993C15.588 4.69558 15.5193 5.19879 15.5193 5.80893V8.56401C15.5193 9.04206 15.4318 9.49809 15.2569 9.93211C15.082 10.3598 14.7572 10.7404 14.2824 11.0738C13.8077 11.4009 13.1299 11.6619 12.2491 11.8569C11.3683 12.0456 10.2252 12.14 8.81963 12.14ZM18.1898 24C17.2465 24 16.3782 23.9402 15.5849 23.8207C14.7915 23.7012 14.1044 23.4622 13.5234 23.1036C12.9487 22.7451 12.499 22.2136 12.1741 21.5091C11.8556 20.8109 11.6963 19.88 11.6963 18.7163V16.6217C11.6963 15.653 11.487 14.9516 11.0685 14.5176C10.6499 14.0836 9.90032 13.8666 8.81963 13.8666V11.9701C10.2252 11.9701 11.3683 12.0676 12.2491 12.2626C13.1299 12.4513 13.8077 12.7124 14.2824 13.0457C14.7572 13.3728 15.082 13.7534 15.2569 14.1874C15.4318 14.6151 15.5193 15.0712 15.5193 15.5555V18.3106C15.5193 18.9144 15.588 19.4145 15.7254 19.8108C15.8628 20.2133 16.1221 20.509 16.5031 20.6977C16.8904 20.8927 17.4526 20.9902 18.1898 20.9902V24ZM8.81963 13.8666V10.2435H12.1835V13.8666H8.81963Z" fill="#FF3636"/>
<path d="M143.914 3.45345C143.467 3.45345 143.08 3.30109 142.753 2.99638C142.444 2.67474 142.289 2.30231 142.289 1.8791C142.289 1.43896 142.444 1.06653 142.753 0.761818C143.08 0.457105 143.467 0.304749 143.914 0.304749C144.361 0.304749 144.739 0.457105 145.049 0.761818C145.375 1.06653 145.539 1.43896 145.539 1.8791C145.539 2.30231 145.375 2.67474 145.049 2.99638C144.739 3.30109 144.361 3.45345 143.914 3.45345ZM147.06 19.0446C145.736 19.0446 144.722 18.7399 144.017 18.1305C143.312 17.521 142.96 16.6069 142.96 15.388V7.92257H138.292V6.39901H144.842V15.2103C144.842 15.989 145.031 16.5476 145.41 16.8862C145.788 17.2248 146.347 17.3941 147.086 17.3941C147.533 17.3941 147.989 17.3517 148.453 17.2671C148.917 17.1655 149.433 17.0047 150 16.7846V18.4606C149.502 18.6298 149.003 18.7653 148.504 18.8668C148.023 18.9853 147.542 19.0446 147.06 19.0446Z" fill="white"/>
<path d="M129.044 19.0446C128.133 19.0446 127.316 18.8838 126.594 18.5621C125.889 18.2405 125.339 17.8003 124.944 17.2417C124.548 16.6661 124.351 16.0059 124.351 15.2611C124.351 14.5162 124.548 13.8645 124.944 13.3058C125.356 12.7472 125.924 12.3155 126.646 12.0108C127.385 11.7061 128.236 11.5537 129.199 11.5537C129.955 11.5537 130.66 11.6299 131.314 11.7823C131.967 11.9177 132.586 12.1547 133.17 12.4933V11.0713C133.17 9.97091 132.887 9.14142 132.319 8.58278C131.752 8.02414 130.91 7.74482 129.792 7.74482C129.156 7.74482 128.52 7.83793 127.884 8.02414C127.248 8.19342 126.534 8.49814 125.743 8.93828L124.97 7.54168C125.881 7.05075 126.749 6.70372 127.574 6.50057C128.399 6.29743 129.216 6.19586 130.024 6.19586C131.623 6.19586 132.852 6.59368 133.712 7.38932C134.589 8.18496 135.027 9.32763 135.027 10.8173V18.7907H133.17V17.3687C132.586 17.9442 131.95 18.3674 131.262 18.6383C130.591 18.9092 129.852 19.0446 129.044 19.0446ZM126.156 15.2103C126.156 15.9382 126.457 16.5222 127.058 16.9624C127.66 17.4025 128.451 17.6226 129.431 17.6226C130.17 17.6226 130.841 17.5126 131.443 17.2925C132.061 17.0555 132.637 16.6831 133.17 16.1752V13.7883C132.637 13.4666 132.07 13.2381 131.468 13.1027C130.867 12.9673 130.205 12.8995 129.483 12.8995C128.485 12.8995 127.677 13.1112 127.058 13.5344C126.457 13.9576 126.156 14.5162 126.156 15.2103Z" fill="white"/>
<path d="M116.263 19.0192C115.781 19.0192 115.377 18.8584 115.051 18.5367C114.741 18.2151 114.586 17.8257 114.586 17.3687C114.586 16.9116 114.741 16.5222 115.051 16.2006C115.377 15.879 115.781 15.7181 116.263 15.7181C116.744 15.7181 117.14 15.879 117.449 16.2006C117.776 16.5222 117.939 16.9116 117.939 17.3687C117.939 17.8257 117.776 18.2151 117.449 18.5367C117.14 18.8584 116.744 19.0192 116.263 19.0192Z" fill="white"/>
<path d="M104.41 19.0446C103 19.0446 101.917 18.7483 101.16 18.1558C100.421 17.5464 100.051 16.6661 100.051 15.515V7.92256H95.7446V6.399H100.051V2.99637L101.934 2.5647V6.399H107.736V7.92256H101.934V15.2103C101.934 15.989 102.149 16.5476 102.579 16.8862C103.008 17.2248 103.627 17.3941 104.435 17.3941C104.934 17.3941 105.45 17.3433 105.983 17.2417C106.516 17.1401 107.1 16.9708 107.736 16.7338V18.4098C107.169 18.6129 106.61 18.7653 106.06 18.8668C105.51 18.9853 104.96 19.0446 104.41 19.0446Z" fill="white"/>
<path d="M88.6366 19.0446C87.4503 19.0446 86.3758 18.7653 85.413 18.2066C84.4674 17.6311 83.711 16.8608 83.1436 15.8959C82.5934 14.931 82.3184 13.8391 82.3184 12.6202C82.3184 11.4014 82.5934 10.3095 83.1436 9.34456C83.711 8.36271 84.4674 7.59246 85.413 7.03382C86.3758 6.47518 87.4503 6.19586 88.6366 6.19586C89.8057 6.19586 90.8631 6.44979 91.8087 6.95764C92.7543 7.4655 93.5021 8.1511 94.0523 9.01446L92.5307 9.95399C92.1353 9.3107 91.5938 8.80285 90.9061 8.43042C90.2355 8.04107 89.4791 7.84639 88.6366 7.84639C87.777 7.84639 87.0119 8.058 86.3414 8.48121C85.6709 8.88749 85.1379 9.44613 84.7425 10.1571C84.3643 10.8681 84.1752 11.6892 84.1752 12.6202C84.1752 13.5344 84.3643 14.3554 84.7425 15.0833C85.1379 15.7943 85.6709 16.3614 86.3414 16.7846C87.0119 17.1909 87.777 17.3941 88.6366 17.3941C89.4791 17.3941 90.2355 17.2078 90.9061 16.8354C91.5938 16.4461 92.1353 15.9297 92.5307 15.2865L94.0523 16.226C93.5021 17.0893 92.7543 17.7749 91.8087 18.2828C90.8631 18.7907 89.8057 19.0446 88.6366 19.0446Z" fill="white"/>
<path d="M73.3801 19.0446C72.4689 19.0446 71.6522 18.8838 70.9302 18.5621C70.2253 18.2405 69.6751 17.8003 69.2797 17.2417C68.8842 16.6661 68.6865 16.0059 68.6865 15.2611C68.6865 14.5162 68.8842 13.8645 69.2797 13.3058C69.6923 12.7472 70.2596 12.3155 70.9817 12.0108C71.721 11.7061 72.572 11.5537 73.5348 11.5537C74.2913 11.5537 74.9962 11.6299 75.6495 11.7823C76.3028 11.9177 76.9218 12.1547 77.5063 12.4933V11.0713C77.5063 9.97091 77.2226 9.14142 76.6553 8.58278C76.0879 8.02414 75.2455 7.74482 74.128 7.74482C73.4918 7.74482 72.8557 7.83793 72.2196 8.02414C71.5835 8.19342 70.87 8.49814 70.0791 8.93828L69.3055 7.54168C70.2167 7.05075 71.0849 6.70372 71.9101 6.50057C72.7354 6.29743 73.552 6.19586 74.3601 6.19586C75.959 6.19586 77.1882 6.59368 78.0479 7.38932C78.9247 8.18496 79.3631 9.32763 79.3631 10.8173V18.7907H77.5063V17.3687C76.9218 17.9442 76.2856 18.3674 75.5979 18.6383C74.9274 18.9092 74.1881 19.0446 73.3801 19.0446ZM70.4917 15.2103C70.4917 15.9382 70.7926 16.5222 71.3944 16.9624C71.9961 17.4025 72.787 17.6226 73.7669 17.6226C74.5062 17.6226 75.1767 17.5126 75.7785 17.2925C76.3974 17.0555 76.9733 16.6831 77.5063 16.1752V13.7883C76.9733 13.4666 76.406 13.2381 75.8042 13.1027C75.2025 12.9673 74.5406 12.8995 73.8185 12.8995C72.8213 12.8995 72.0133 13.1112 71.3944 13.5344C70.7926 13.9576 70.4917 14.5162 70.4917 15.2103Z" fill="white"/>
<path d="M58.4327 18.7906V7.92253H54.126V6.39897H58.4327V3.91048C58.4327 1.30349 59.9543 0 62.9973 0C63.5131 0 64.0289 0.0507847 64.5447 0.152355C65.0776 0.253926 65.602 0.397819 66.1178 0.584033V2.31074C65.4817 2.05681 64.9229 1.88753 64.4415 1.80288C63.9601 1.70131 63.4186 1.65053 62.8168 1.65053C62.0088 1.65053 61.3898 1.85367 60.96 2.25995C60.5302 2.64931 60.3153 3.30106 60.3153 4.21519V6.39897H66.1178V7.92253H60.3153V18.7906H58.4327Z" fill="white"/>
<path d="M46.9924 19.0446C45.7889 19.0446 44.7058 18.7653 43.743 18.2066C42.7802 17.6311 42.0152 16.8608 41.4478 15.8959C40.8976 14.914 40.6226 13.8137 40.6226 12.5948C40.6226 11.376 40.889 10.2841 41.422 9.31917C41.955 8.35424 42.6771 7.59246 43.5883 7.03382C44.5167 6.47518 45.5482 6.19586 46.6829 6.19586C47.8692 6.19586 48.9266 6.47518 49.855 7.03382C50.7834 7.57553 51.5141 8.32039 52.047 9.26838C52.58 10.1994 52.8465 11.2575 52.8465 12.4425V13.0011H42.4536C42.5223 13.8475 42.763 14.6093 43.1757 15.2865C43.5883 15.9467 44.1298 16.4715 44.8004 16.8608C45.4881 17.2332 46.2445 17.4195 47.0698 17.4195C47.8091 17.4195 48.4968 17.284 49.1329 17.0132C49.7862 16.7254 50.3278 16.336 50.7576 15.8451L52.0728 16.9878C51.4023 17.6649 50.6372 18.1812 49.7776 18.5367C48.918 18.8753 47.9896 19.0446 46.9924 19.0446ZM42.5051 11.6299H50.9897C50.8865 10.8851 50.6286 10.2248 50.216 9.64927C49.8206 9.07371 49.3134 8.6251 48.6945 8.30346C48.0927 7.96489 47.4136 7.7956 46.6572 7.7956C45.9523 7.7956 45.3075 7.95642 44.723 8.27807C44.1384 8.59971 43.6484 9.04831 43.253 9.62388C42.8748 10.1994 42.6255 10.8681 42.5051 11.6299Z" fill="white"/>
<path d="M27.4292 18.7907V17.2671H30.8849V7.92257H27.4292V6.399H32.7675V9.16681C33.1457 8.21882 33.7131 7.49089 34.4696 6.98304C35.226 6.45825 36.1029 6.19586 37.1 6.19586C37.4954 6.19586 37.8479 6.22972 38.1574 6.29743C38.4668 6.34822 38.8365 6.44132 39.2663 6.57675V8.27807C38.8365 8.14264 38.4238 8.0326 38.0284 7.94796C37.6502 7.86332 37.2719 7.821 36.8937 7.821C35.9653 7.821 35.1401 8.058 34.418 8.53199C33.6959 9.00599 33.1457 9.68313 32.7675 10.5634V17.2671H36.4295V18.7907H27.4292Z" fill="white"/>
</svg>
